<svg xmlns="http://www.w3.org/2000/svg" width="14" height="14" viewBox="0 0 14 14">
    <g fill="none" fill-rule="evenodd">
        <path fill="#FFF" d="M-962-74H318V26H-962z"/>
        <path fill="#2D2A2A" stroke="#2D2A2A" d="M6.045 10.163c-2.358 0-4.269-1.877-4.269-4.197 0-2.32 1.911-4.201 4.269-4.201 2.357 0 4.268 1.881 4.268 4.2 0 2.32-1.911 4.198-4.268 4.198zm6.831 2.174L9.781 9.29a4.89 4.89 0 0 0 1.308-3.324C11.09 3.222 8.831 1 6.045 1 3.258 1 1 3.222 1 5.966c0 2.74 2.258 4.962 5.045 4.962a5.067 5.067 0 0 0 3.175-1.11l3.107 3.059a.39.39 0 0 0 .55 0 .377.377 0 0 0 0-.54z"/>
    </g>
</svg>
