<?xml version="1.0" standalone="no"?>
<!DOCTYPE svg PUBLIC "-//W3C//DTD SVG 1.1//EN" "http://www.w3.org/Graphics/SVG/1.1/DTD/svg11.dtd" >
<svg xmlns="http://www.w3.org/2000/svg">
<metadata></metadata>
<defs>
<font id="tymesmedium" horiz-adv-x="1034" >
<font-face units-per-em="2048" ascent="1536" descent="-512" />
<missing-glyph horiz-adv-x="512" />
<glyph horiz-adv-x="2048" />
<glyph horiz-adv-x="2048" />
<glyph unicode="&#xd;" horiz-adv-x="2048" />
<glyph unicode=" "  horiz-adv-x="512" />
<glyph unicode="&#x09;" horiz-adv-x="512" />
<glyph unicode="&#xa0;" horiz-adv-x="512" />
<glyph unicode="!" horiz-adv-x="681" d="M264 86q0 45 33 78t80 33q45 0 80 -35q30 -35 30 -76q0 -46 -32 -78q-36 -28 -80 -31q-40 0 -76 31q-35 30 -35 78zM264 1219q0 57 25 112q23 50 90 53q67 0 90 -71q11 -35 14 -92q0 -25 -2 -35q0 -25 -4 -41l-45 -379l-47 -406h-25l-18 220q-13 134 -45 358 q-30 236 -33 281z" />
<glyph unicode="&#x22;" horiz-adv-x="835" d="M188 1298q0 39 23 62q21 24 55 24q44 0 64 -26q18 -27 18 -74q0 -3 -4 -39q0 -9 -1 -22t-1 -19l-49 -409h-45l-51 405q-1 10 -3.5 28.5t-3.5 24.5q-2 16 -2 45zM485 1264v20q0 54 21 78q19 19 59 22q47 0 66 -28q13 -23 16 -74q0 -10 -2 -18q0 -8 -6 -64l-47 -405h-47 l-49 397q-4 46 -11 72z" />
<glyph unicode="#" horiz-adv-x="1024" d="M0 428l16 76h217l97 346h-219l16 74h219l119 430h123l-119 -430h215l117 430h121l-119 -430h219l-21 -74h-217l-92 -346h217l-20 -76h-215l-117 -428h-125l121 428h-217l-117 -428h-121l117 428h-215zM354 504h217l93 344h-218z" />
<glyph unicode="$" horiz-adv-x="1024" d="M90 104v265h31q27 -121 78 -191q89 -120 272 -123v580q-203 121 -262 180q-102 96 -105 236q0 112 101 206q99 94 266 103v129h70v-129q80 -3 182 -33q94 -28 145 -76v-227h-28q-25 134 -109 203q-82 73 -190 76v-502q219 -113 309 -203q83 -92 86 -242q0 -56 -21 -112 q-28 -84 -102 -148q-61 -48 -131 -67q-72 -23 -141 -29v-180h-70v180q-128 3 -217 31q-68 21 -164 73zM258 1092q0 -80 84 -164q58 -55 127 -94v469q-93 -12 -152 -68q-56 -56 -59 -143zM541 55q81 14 137 54q96 66 96 204q0 96 -69 168q-47 47 -164 117v-543z" />
<glyph unicode="%" horiz-adv-x="1705" d="M125 870q0 164 133 324q135 159 307 162q57 0 103 -17q21 -9 41 -26l36 -33q23 -20 66 -29q39 -8 86 -8q112 0 213 55q58 35 109 86h79l-788 -1413h-98l712 1280q-79 -37 -110 -47q-42 -10 -99 -10q-53 0 -94 6q-23 3 -49 12q1 -6 3.5 -16t4 -17t2.5 -12q4 -20 4 -53 q0 -180 -120 -352q-118 -170 -295 -170q-94 0 -170 70q-73 70 -76 208zM279 803q0 -65 30 -105q33 -36 99 -36q121 0 225 149q100 144 100 324q0 64 -12 82t-47 24q-21 5 -58 31q-31 22 -38 22q-98 0 -199 -174q-97 -169 -100 -317zM920 279q0 173 137 325q138 153 305 156 q86 0 154 -53q65 -50 65 -193q0 -151 -113 -334q-112 -182 -301 -182q-102 0 -176 68q-71 68 -71 213zM1073 197q0 -65 39 -101q38 -35 98 -35q120 0 220 158q95 160 98 297q0 81 -41 131q-41 44 -109 47q-118 0 -211 -182q-94 -186 -94 -315z" />
<glyph unicode="&#x26;" horiz-adv-x="1593" d="M82 291q0 135 86 244q79 101 240 192l77 45q-17 38 -30 74q-4 13 -13 39t-12 37q-2 10 -6 31.5t-6 31.5q-4 46 -4 66q0 143 88 237q84 93 223 96q122 0 201 -67q77 -62 80 -180q0 -134 -103 -215q-103 -89 -217 -136q92 -166 129 -227q57 -85 141 -194q104 128 148 223 q41 90 41 145q0 58 -41 78q-24 12 -90 18v43h440v-43q-63 -9 -98 -24q-55 -27 -92 -96l-54 -97q-56 -103 -94 -155q-34 -51 -110 -150q31 -38 90 -94q110 -94 223 -94q63 0 111 31q29 22 75 77l31 -24q-6 -24 -43 -76q-36 -50 -70 -80q-46 -43 -120 -65q-44 -13 -80 -13 q-93 0 -193 62q-66 44 -151 127q-84 -78 -183 -127q-123 -60 -264 -60q-155 0 -256 84q-91 85 -94 236zM274 360q0 -113 74 -196q72 -81 191 -84q59 0 135 33q80 30 153 100q-89 116 -147 203q-40 61 -164 284q-103 -59 -158 -120q-84 -93 -84 -220zM575 1139q0 -68 23 -138 q22 -76 57 -151q99 54 150 102q90 87 90 191q0 79 -45 127q-47 47 -117 47q-74 0 -117 -49q-41 -47 -41 -129z" />
<glyph unicode="'" horiz-adv-x="368" d="M102 1298q0 30 15 60q13 26 59 26q48 0 62 -26q16 -26 16 -70q0 -8 -2 -12q0 -18 -4 -41l-49 -440h-35l-53 405q-1 8 -3.5 24.5t-3.5 24.5q0 33 -2 49z" />
<glyph unicode="(" horiz-adv-x="681" d="M94 514q0 344 207 610q127 161 303 260l19 -32q-162 -131 -230 -250q-121 -210 -121 -561q0 -266 45 -430q83 -297 306 -443l-25 -33q-127 59 -266 232q-238 280 -238 647z" />
<glyph unicode=")" horiz-adv-x="681" d="M53 -332q157 120 226 240q127 216 127 569q0 283 -60 469q-79 256 -293 406l27 32q159 -90 295 -266q206 -274 209 -614q0 -143 -39 -283q-38 -125 -115 -250q-71 -118 -211 -235q-85 -70 -145 -101z" />
<glyph unicode="*" horiz-adv-x="1024" d="M135 784q0 71 101 95q163 35 237 86q-71 43 -240 88q-98 24 -98 86q0 32 21 53q21 18 49 18q40 0 106 -75q68 -77 176 -140v27q0 84 -26 166q-24 80 -27 117q0 36 23 59q20 20 51 20q34 0 53 -22q19 -25 19 -59q0 -23 -27 -109q-27 -82 -27 -205q65 50 101 76q11 7 43 43 q80 86 88 92q16 11 49 14q30 0 49 -22q23 -23 23 -53q0 -63 -91 -82q-152 -30 -245 -94l16 -11q79 -48 232 -78q88 -18 88 -88q0 -33 -25 -55q-22 -12 -51 -16q-44 0 -115 86q-69 84 -147 125l-15 8v-14q0 -120 29 -197q26 -75 29 -96q0 -32 -25 -60q-18 -24 -57 -24 q-32 0 -51 22q-18 24 -21 60q0 6 35 125q32 108 22 170l-2 14q-81 -47 -159 -131q-72 -84 -119 -84q-38 0 -55 20q-17 24 -17 45z" />
<glyph unicode="+" horiz-adv-x="1155" d="M61 446v142h449v446h139v-446h447v-142h-447v-446h-139v446h-449z" />
<glyph unicode="," horiz-adv-x="512" d="M215 92q0 39 29 78q26 36 96 39q62 0 113 -51q49 -46 49 -138q0 -99 -74 -188q-69 -84 -156 -125l-18 41q93 55 131 117q37 64 37 104q0 16 -8 19q-12 4 -21 4l-65 -6q-42 0 -78 26q-35 27 -35 80z" />
<glyph unicode="-" horiz-adv-x="681" d="M80 397v129h504v-129h-504z" />
<glyph unicode="." horiz-adv-x="512" d="M219 90q0 45 35 80q29 33 80 33q47 0 80 -33q32 -32 32 -80q0 -47 -32 -82q-33 -33 -80 -33t-80 33q-35 35 -35 82z" />
<glyph unicode="/" horiz-adv-x="569" d="M4 -35l455 1419h100l-453 -1419h-102z" />
<glyph unicode="0" d="M43 473q0 232 143 369q133 127 326 127q195 0 328 -127q141 -138 141 -369q0 -236 -147 -371q-131 -122 -322 -122q-203 0 -334 137q-135 138 -135 356zM205 473q0 -225 90 -334q83 -105 217 -108q126 0 217 104q90 110 90 338q0 234 -92 340q-86 102 -215 105 q-128 0 -217 -109q-87 -106 -90 -336z" />
<glyph unicode="1" horiz-adv-x="477" d="M23 0v27q88 6 112 24q27 21 27 105v637q0 78 -27 102q-24 24 -112 27v26h423v-26q-85 -3 -112 -27q-24 -21 -27 -102v-637q0 -84 27 -105q24 -18 112 -24v-27h-423z" />
<glyph unicode="2" horiz-adv-x="716" d="M43 0v16q255 264 348 392q90 125 90 241q0 106 -55 158q-55 55 -133 55q-99 0 -156 -69q-32 -38 -63 -119l-31 6q38 159 119 223q97 72 180 72q106 0 190 -84q74 -74 74 -182q0 -116 -78 -222q-78 -103 -344 -378h322q65 0 94 16q27 15 62 80l18 -10l-78 -195h-559z" />
<glyph unicode="3" horiz-adv-x="1024" d="M88 -338q0 23 16 49q19 25 56 25q55 0 143 -58q94 -57 156 -57q138 0 207 94q67 94 67 207q0 110 -53 189q-94 134 -315 137q-17 0 -25 -2q-17 0 -29 -2l-2 26q160 56 252 133q92 74 92 197q0 109 -71 168q-73 55 -166 55q-109 0 -195 -80q-43 -43 -98 -137l-31 8 q42 156 150 242q105 89 252 92q151 0 235 -84t84 -194q0 -96 -70 -178q-40 -46 -120 -103q95 -41 153 -96q108 -102 111 -266q0 -188 -152 -334q-149 -146 -424 -146q-121 0 -174 35q-46 37 -49 80z" />
<glyph unicode="4" horiz-adv-x="1024" d="M23 47l641 901h94v-901h209v-133h-209v-340h-160v340h-575v133zM106 47h492v694z" />
<glyph unicode="5" horiz-adv-x="1024" d="M66 -299q0 31 20 51q23 23 68 23q58 0 147 -66q92 -60 143 -63q117 0 201 100q86 106 86 252q0 257 -274 373q-152 61 -287 61q-23 0 -27 2q-4 0 -14 10q1 3 2 8t2 7q0 2 4 10l217 477h430q32 0 50 12q15 7 45 41l16 -14l-78 -184q-3 -10 -22 -13q-12 -2 -39 -2h-387 l-84 -176q152 -22 239 -53q124 -41 209 -123q71 -72 109 -160q37 -87 37 -188q0 -220 -158 -369q-153 -144 -397 -147q-96 0 -158 18q-100 29 -100 113z" />
<glyph unicode="6" horiz-adv-x="1024" d="M70 582q0 353 280 606q247 210 561 213l7 -35q-129 -21 -218 -61q-88 -41 -159 -111q-73 -70 -138 -182q-64 -110 -88 -221q55 33 107 57q82 31 162 31q161 0 266 -111q108 -108 108 -313q0 -185 -118 -330q-118 -148 -305 -148q-175 0 -322 166q-143 169 -143 439z M258 514q0 -157 70 -319q70 -156 221 -156q118 0 172 100q53 100 53 240q0 136 -41 235q-70 169 -237 172q-154 0 -207 -92q-31 -57 -31 -180z" />
<glyph unicode="7" horiz-adv-x="1024" d="M41 647q79 195 80 197q2 8 41 104h758v-33l-435 -1341h-133l406 1223h-436q-92 0 -140 -31q-45 -36 -106 -135z" />
<glyph unicode="8" horiz-adv-x="1024" d="M109 307q0 126 81 223q50 62 185 152q-135 107 -180 170q-74 95 -74 211q0 134 108 223q109 92 285 92q161 0 256 -86q94 -85 94 -202q0 -120 -96 -209q-58 -55 -180 -123q162 -120 241 -219q74 -95 74 -222q0 -145 -108 -241q-105 -96 -289 -99q-161 0 -281 91 q-113 88 -116 239zM264 334q0 -135 72 -219q71 -80 178 -80q117 0 174 63q60 63 60 160q0 106 -64 176t-256 205q-83 -56 -125 -139q-39 -89 -39 -166zM272 1124q0 -94 70 -176q77 -83 186 -149q93 66 129 110q61 76 64 187q0 91 -59 159t-179 68q-91 0 -151 -57 q-60 -60 -60 -142z" />
<glyph unicode="9" horiz-adv-x="1024" d="M61 459q0 214 117 352q122 137 305 137q219 0 340 -176q119 -174 119 -391q0 -154 -55 -309q-58 -155 -166 -281q-129 -141 -324 -211q-112 -39 -274 -59l-10 41q85 17 174 51q117 44 198 119q105 102 168 225q66 129 80 209l-35 -27q-73 -55 -174 -76q-50 -12 -94 -12 q-169 0 -270 119q-99 123 -99 289zM250 537q0 -149 55 -271q58 -122 207 -125q68 0 139 39q70 37 82 64q2 5 8 73q2 43 2 107q0 209 -69 338q-68 129 -205 129q-99 0 -160 -88q-59 -89 -59 -266z" />
<glyph unicode=":" horiz-adv-x="569" d="M166 96q0 47 31 78q28 32 79 35q44 0 82 -35q32 -28 35 -78q0 -42 -33 -78q-34 -34 -88 -34q-43 0 -75 32q-31 36 -31 80zM166 829q0 51 31 78q29 33 77 33q47 0 78 -31q35 -28 35 -78q0 -53 -35 -81q-31 -31 -78 -31q-48 0 -77 33q-31 36 -31 77z" />
<glyph unicode=";" horiz-adv-x="569" d="M170 92q0 39 29 78q26 36 96 39q62 0 113 -51q49 -46 49 -138q0 -96 -72 -186q-66 -80 -158 -127l-18 41q93 55 131 117q37 64 37 104q0 16 -8 19q-12 4 -21 4l-65 -6q-42 0 -78 26q-35 27 -35 80zM172 827q0 45 35 80q29 33 80 33q44 0 80 -33q32 -37 32 -80 q0 -50 -32 -82q-37 -32 -80 -32q-45 0 -82 32q-30 35 -33 82z" />
<glyph unicode="&#x3c;" horiz-adv-x="1155" d="M61 489v56l1035 508v-154l-766 -381l766 -383v-151z" />
<glyph unicode="=" horiz-adv-x="1155" d="M61 242v139h1035v-139h-1035zM61 653v142h1035v-142h-1035z" />
<glyph unicode="&#x3e;" horiz-adv-x="1155" d="M18 -16v151l846 383l-846 381v154l1115 -508v-56z" />
<glyph unicode="?" horiz-adv-x="909" d="M135 1094q0 102 88 196q89 92 269 92q157 0 256 -86q102 -86 102 -237q0 -129 -154 -324q-166 -208 -196 -399h-35q0 45 10 104q6 46 27 119q15 54 82 199q38 97 55 149q20 72 23 140q0 107 -56 190q-56 86 -174 86q-81 0 -135 -45q-55 -43 -55 -82q0 -23 41 -70 q38 -41 41 -86q0 -32 -25 -57t-59 -25q-43 0 -72 33q-33 36 -33 103zM373 90q0 45 33 78q31 31 75 31q42 0 78 -31q35 -35 35 -78q0 -45 -33 -78q-35 -30 -78 -30q-45 0 -80 30q-30 30 -30 78z" />
<glyph unicode="@" horiz-adv-x="1886" d="M184 631q0 312 248 532q243 218 594 221q269 0 461 -151q199 -159 199 -410q0 -195 -127 -366q-125 -168 -289 -168q-107 0 -160 65q-32 47 -35 97q-20 -59 -90 -113q-63 -51 -141 -51q-115 0 -193 78q-76 76 -76 204q0 168 132 312q132 141 286 141q72 0 121 -37 q51 -37 66 -88l32 100h164l-53 -170q-25 -77 -61 -194q-41 -149 -41 -184q0 -21 14 -46q21 -41 74 -41q94 0 198 134q102 128 105 325q0 234 -180 361q-177 122 -396 125q-270 0 -481 -187q-230 -196 -233 -487q0 -270 194 -434q184 -156 463 -156q93 0 207 27 q177 45 297 137l39 -57q-150 -94 -285 -138q-131 -41 -289 -41q-312 0 -538 191t-226 469zM750 502q0 -67 32 -105q34 -37 90 -37q118 0 191 193q71 192 74 281q0 49 -29 81q-31 31 -82 31q-100 0 -188 -153q-88 -152 -88 -291z" />
<glyph unicode="A" horiz-adv-x="1478" d="M31 0v37q75 9 116 59q39 50 138 279l426 1003h41l510 -1161q49 -113 79 -143q31 -28 105 -37v-37h-522v37q98 10 116 18q24 12 27 58q0 8 -10 53q-6 24 -29 80l-86 196h-534q-94 -237 -97 -245q-14 -41 -14 -70q0 -52 41 -72q24 -12 98 -18v-37h-405zM442 526h471 l-235 564z" />
<glyph unicode="B" horiz-adv-x="1366" d="M35 0v37q124 6 160 39q36 29 36 145v912q0 112 -36 145t-160 39v39h573q246 0 391 -80q143 -76 146 -272q0 -143 -103 -220q-50 -40 -170 -71q144 -35 240 -115q100 -75 100 -221q0 -241 -221 -330q-118 -47 -289 -47h-667zM440 158q0 -51 29 -70q35 -14 139 -14 q157 0 264 61q104 58 107 234q0 171 -125 235q-128 64 -315 64h-62h-37v-510zM440 745l195 5q97 0 172 32q129 58 129 215q0 181 -150 246q-75 34 -251 37q-62 0 -80 -12q-15 -9 -15 -60v-463z" />
<glyph unicode="C" horiz-adv-x="1366" d="M51 664q0 297 189 501q198 213 518 213q118 0 227 -32q115 -33 131 -33q26 0 55 16q25 14 37 49h43l19 -458h-47q-41 138 -107 221q-124 154 -340 157q-215 0 -350 -170q-134 -168 -137 -469q0 -273 143 -438q147 -162 365 -162q159 0 293 76q74 42 167 129l39 -37 q-64 -81 -170 -151q-165 -108 -372 -111q-326 0 -525 211q-178 196 -178 488z" />
<glyph unicode="D" horiz-adv-x="1478" d="M33 0v37q112 12 145 41q35 27 35 143v912q0 112 -33 145q-35 30 -147 39v39h553q276 0 471 -92q348 -167 348 -590q0 -157 -64 -291q-63 -141 -188 -233q-68 -55 -166 -93q-157 -57 -385 -57h-569zM422 158q0 -52 22 -66q20 -13 103 -16q240 0 395 94q238 148 238 500 q0 316 -197 475q-167 135 -444 135q-70 0 -95 -14q-22 -14 -22 -68v-1040z" />
<glyph unicode="E" horiz-adv-x="1251" d="M23 0v37q110 12 147 41q33 30 33 143v912q0 107 -33 143q-37 32 -147 41v39h1087l8 -295h-51q-27 134 -80 176q-46 38 -231 41h-279q-42 0 -55 -16q-7 -9 -10 -54v-456h315q129 0 168 39q36 40 57 157h47v-475h-47q-20 116 -59 158q-36 39 -166 39h-315v-506 q0 -62 39 -74q29 -7 231 -10q209 0 305 45q100 46 178 221h58l-93 -346h-1107z" />
<glyph unicode="F" horiz-adv-x="1138" d="M23 0v37q123 12 149 45q31 31 31 164v887q0 107 -33 143q-37 32 -147 41v39h1091l6 -295h-55q-21 140 -80 178q-56 36 -229 39h-281q-40 0 -51 -14q-9 -11 -12 -56v-456h297q129 0 165 39q36 36 60 157h47v-475h-47q-24 119 -60 158t-165 39h-297v-449q0 -113 34 -143 q37 -32 152 -41v-37h-575z" />
<glyph unicode="G" horiz-adv-x="1478" d="M49 664q0 288 180 489q197 225 529 225q127 0 233 -32q109 -33 133 -33q43 0 62 16q17 17 33 49h45l16 -430h-47q-66 150 -131 221q-117 126 -316 129q-194 0 -346 -149q-146 -149 -149 -494q0 -280 149 -442q149 -158 369 -158q33 0 86 6q36 4 94 23q71 23 92 41 q19 19 19 51v328q0 117 -35 147q-37 29 -145 35v39h522v-39q-76 -3 -103 -24q-41 -30 -41 -132v-403q0 -35 -178 -96q-180 -60 -338 -60q-302 0 -506 174q-227 193 -227 519z" />
<glyph unicode="H" horiz-adv-x="1478" d="M33 0v37q123 12 149 45q31 31 31 164v887q0 111 -35 143q-28 32 -145 41v39h569v-39q-112 -6 -147 -41q-33 -33 -33 -143v-400h620v400q0 106 -32 143q-32 32 -148 41v39h570v-39q-113 -6 -148 -41q-33 -33 -33 -143v-912q0 -110 33 -143q33 -29 148 -41v-37h-570v37 q121 12 150 45q30 30 30 164v397h-620v-422q0 -110 33 -143q37 -32 147 -41v-37h-569z" />
<glyph unicode="I" horiz-adv-x="681" d="M33 0v37q123 9 162 37q36 26 36 147v912q0 112 -36 145t-162 39v39h606v-39q-126 -6 -162 -39q-37 -30 -37 -145v-912q0 -117 37 -147q39 -28 162 -37v-37h-606z" />
<glyph unicode="J" horiz-adv-x="796" d="M20 119q0 53 31 78q28 22 66 22q68 0 102 -86q35 -84 70 -84q41 0 55 35q13 30 16 123v926q0 114 -36 147q-39 31 -154 37v39h588v-39q-116 -6 -156 -43q-32 -32 -35 -141v-752q0 -204 -98 -305q-98 -98 -246 -101q-95 0 -149 45q-51 42 -54 99z" />
<glyph unicode="K" horiz-adv-x="1478" d="M37 0v37q123 9 156 45q28 32 28 164v887q0 110 -33 143q-32 32 -151 41v39h584v-39q-121 -6 -154 -39q-34 -31 -37 -145v-420q169 141 309 274q215 203 215 262q0 42 -36 56q-34 12 -103 12v39h537v-33q-92 -8 -156 -41q-56 -27 -156 -127l-389 -381l477 -514 q132 -141 181 -178q46 -34 141 -47v-35h-627v37q85 3 115 12q31 12 31 43q0 17 -21 51q-13 33 -59 82l-389 426l-70 -59v-371q0 -113 35 -143q37 -32 151 -41v-37h-579z" />
<glyph unicode="L" horiz-adv-x="1251" d="M23 0v37q110 12 147 41q33 30 33 143v912q0 107 -33 143q-37 32 -147 41v39h579v-39q-109 -6 -151 -37q-36 -29 -39 -133v-983q0 -34 12 -55q10 -20 49 -23q32 -4 49 -4q49 0 96 -2q278 0 369 45q97 48 187 229h51l-101 -354h-1101z" />
<glyph unicode="M" horiz-adv-x="1820" d="M23 0v37q127 12 163 57q35 43 35 207v832q0 113 -35 145q-38 33 -157 39v39h403l475 -1034l453 1034h407v-39q-115 -6 -145 -41q-35 -35 -35 -143v-912q0 -108 35 -143q29 -29 145 -41v-37h-573v37q125 9 154 45q30 35 30 164v919l-524 -1165h-27l-516 1118v-817 q0 -167 49 -219q33 -33 144 -45v-37h-481z" />
<glyph unicode="N" horiz-adv-x="1478" d="M23 0v37q127 12 163 57q35 43 35 207v903l-26 33q-46 52 -78 66q-27 11 -94 14v39h352l788 -987v686q0 168 -51 219q-29 34 -145 43v39h481v-39q-117 -12 -156 -57q-39 -42 -39 -205v-1080h-34l-908 1125v-799q0 -167 49 -219q33 -33 144 -45v-37h-481z" />
<glyph unicode="O" horiz-adv-x="1478" d="M61 678q0 325 205 524q188 179 465 182q276 0 467 -182q205 -199 205 -524q0 -335 -211 -531q-191 -176 -461 -176q-285 0 -477 195q-193 202 -193 512zM293 678q0 -322 127 -479q127 -154 311 -154q180 0 309 150t129 483t-129 483q-129 147 -309 150q-182 0 -311 -156 q-124 -151 -127 -477z" />
<glyph unicode="P" horiz-adv-x="1138" d="M33 0v37q118 9 145 47q28 32 31 162v887q0 106 -35 141q-30 34 -141 43v39h540q263 0 398 -103q139 -100 139 -266q0 -208 -154 -303q-154 -92 -383 -92h-86q-33 2 -75 2v-373q0 -115 34 -145q38 -30 160 -39v-37h-573zM412 678q55 -6 71 -6q23 0 33 -2q145 0 223 41 q148 71 148 272q0 186 -162 258q-85 36 -221 39q-64 0 -78 -14q-11 -11 -14 -56v-532z" />
<glyph unicode="Q" horiz-adv-x="1478" d="M61 678q0 325 205 524q188 179 465 182q274 0 463 -180q209 -197 209 -526q0 -263 -133 -445q-143 -192 -408 -245q122 -177 299 -254q95 -40 269 -62v-37h-84q-166 0 -295 27q-126 26 -234 82q-106 56 -194 150q-91 97 -101 102l-24 10q-174 81 -265 180 q-172 187 -172 492zM293 678q0 -322 127 -479q127 -154 311 -154q180 0 309 150t129 483t-129 483q-129 147 -309 150q-182 0 -311 -156q-124 -151 -127 -477z" />
<glyph unicode="R" horiz-adv-x="1366" d="M23 0v37q117 9 147 47q29 37 29 162v887q0 108 -33 141q-30 34 -143 43v39h567q174 0 295 -45q222 -84 225 -314q0 -152 -100 -235q-107 -83 -271 -109l422 -518q41 -50 78 -69q39 -20 100 -29v-37h-329l-490 631l-112 -6v-404q0 -115 32 -143q41 -32 152 -41v-37h-569z M408 700q224 9 315 48q161 64 164 251q0 177 -148 242q-69 34 -207 37q-86 0 -106 -14q-18 -12 -18 -58v-506z" />
<glyph unicode="S" horiz-adv-x="1138" d="M86 412h45q51 -135 123 -219q123 -144 303 -144q97 0 168 62q74 62 74 174q0 97 -74 174q-48 48 -197 139l-176 111q-85 55 -125 100q-88 97 -88 215q0 154 105 256q98 101 272 104q70 0 168 -34q84 -29 113 -35q38 0 53 18q14 21 22 51h41l45 -436h-49q-50 197 -159 275 q-108 77 -220 77q-84 0 -145 -49q-60 -46 -63 -137q0 -77 49 -135q46 -58 147 -119l180 -110q170 -105 240 -193q65 -86 68 -207q0 -160 -123 -268q-118 -109 -310 -109q-91 0 -198 35q-104 37 -119 37q-38 0 -49 -22q-10 -18 -17 -48h-45z" />
<glyph unicode="T" horiz-adv-x="1251" d="M29 1008l12 348h1155l12 -348h-49q-38 168 -92 213q-55 49 -233 49h-113v-1049q0 -120 37 -147q36 -28 162 -37v-37h-598v37q132 9 161 43q30 30 33 166v1024h-115q-167 0 -231 -49q-57 -43 -92 -213h-49z" />
<glyph unicode="U" horiz-adv-x="1478" d="M29 1317v39h579v-39q-113 -6 -151 -39q-35 -28 -35 -145v-656q0 -165 43 -250q80 -164 311 -164q251 0 336 168q49 91 49 289v535q0 168 -41 209q-38 41 -151 53v39h475v-39q-119 -12 -158 -57q-35 -44 -35 -205v-535q0 -214 -65 -330q-119 -219 -457 -219 q-330 0 -450 215q-66 120 -66 308v639q0 111 -35 143q-37 32 -149 41z" />
<glyph unicode="V" horiz-adv-x="1478" d="M33 1321v35h545v-39q-82 0 -105 -10q-46 -14 -49 -66q0 -29 16 -70q16 -39 68 -149l319 -715l291 772q6 17 15.5 45.5l13.5 40.5q4 18 10 58q0 60 -51 80q-27 11 -98 14v39h417v-35q-59 -8 -96 -37q-44 -36 -92 -156l-453 -1153h-30l-506 1127q-60 139 -103 178 q-38 35 -112 41z" />
<glyph unicode="W" horiz-adv-x="1933" d="M8 1317v39h504v-39q-58 0 -88 -10q-45 -17 -45 -64q0 -25 4 -39q2 -5 7 -21t9 -28l297 -770l217 580l-96 245q-28 70 -82 93q-35 14 -96 14v39h549v-39q-82 0 -107 -10q-44 -17 -47 -70q0 -13 4 -33q3 -11 21 -55l297 -768l256 694q20 64 28 107q2 9 4 23.5t3 17.5 q0 56 -56 80q-24 11 -90 14v39h408v-39q-55 -6 -84 -25q-53 -27 -78 -100l-219 -608l-84 -236l-123 -373h-33l-82 238l-243 631l-316 -869h-31l-147 426l-176 480q-107 291 -152 362q-44 68 -133 74z" />
<glyph unicode="X" horiz-adv-x="1478" d="M20 0v37q86 9 127 45q44 37 170 190l320 394l-227 329q-151 217 -207 265q-60 54 -158 57v39h619v-39q-90 -3 -117 -12q-38 -11 -41 -58q0 -26 20 -65q9 -22 29 -47l213 -308l231 283q51 57 70 96q10 23 10 41q0 46 -43 60q-30 10 -98 10v39h485v-39q-81 0 -127 -27 q-64 -34 -176 -168l-301 -368l393 -566q67 -92 107 -114q43 -25 123 -37v-37h-608v41q88 0 120 14q35 11 35 49q0 36 -45 107q-69 110 -256 381l-242 -305q-59 -75 -73 -99q-33 -47 -33 -73q0 -45 51 -62q24 -9 107 -16v-37h-478z" />
<glyph unicode="Y" horiz-adv-x="1478" d="M45 1317v39h573v-39q-13 1 -25 1q-51 0 -83 -11q-37 -12 -37 -58q0 -11 6 -32q3 -10 29 -52l303 -454l293 463q13 19 22 47q7 21 7 28q0 43 -48 58q-30 10 -96 10v39h449v-39q-62 -3 -111 -37q-72 -51 -172 -197l-301 -462v-400q0 -120 37 -147q38 -28 174 -37v-37h-627 v37q140 9 172 41q33 33 33 168v356l-266 393q-135 198 -197 260q-56 56 -135 62z" />
<glyph unicode="Z" horiz-adv-x="1251" d="M14 0v23l897 1255h-471q-176 0 -254 -90q-45 -55 -69 -182h-54l41 350h1082v-25l-889 -1253h524q179 0 262 86q50 53 93 196h47l-49 -360h-1160z" />
<glyph unicode="_" horiz-adv-x="1024" d="M0 -156h1024v-100h-1024v100z" />
<glyph unicode="a" d="M20 0v27q59 6 84 41q31 43 95 194l299 703h28l357 -811q32 -76 55 -103q21 -18 74 -24v-27h-365v27q52 3 80 12q18 9 18 41q0 10 -6 37q-7 27 -18 55l-62 137h-374q-15 -37 -31.5 -78.5t-24.5 -62.5t-12 -31q-10 -30 -10 -49q0 -37 31 -49q15 -9 67 -12v-27h-285z M309 369h332l-168 395z" />
<glyph unicode="b" horiz-adv-x="956" d="M25 0v27q86 3 110 24q27 24 27 105v637q0 78 -27 102q-24 24 -110 27v26h401q174 0 272 -55q103 -56 103 -191q0 -102 -72 -153q-43 -32 -119 -49q96 -23 168 -80q69 -54 72 -156q0 -165 -156 -231q-79 -33 -202 -33h-467zM307 111q0 -37 23 -50q20 -10 96 -10 q108 0 184 43q74 44 74 164q0 119 -86 166q-85 43 -221 43h-41q-15 0 -29 2v-358zM307 522l137 2q68 0 119 23q89 42 92 151q0 129 -104 172q-61 25 -176 25q-46 0 -58 -6q-10 -10 -10 -43v-324z" />
<glyph unicode="c" horiz-adv-x="956" d="M37 465q0 210 131 350q138 150 362 150q84 0 160 -23q86 -22 92 -22q20 0 37 10q22 15 27 35h31l12 -322h-33q-27 95 -76 156q-85 107 -235 110q-148 0 -248 -118q-94 -119 -94 -328q0 -194 98 -307q103 -112 256 -115q110 0 205 53q57 31 119 90l26 -24 q-43 -57 -119 -107q-118 -75 -260 -78q-231 0 -366 150q-125 134 -125 340z" />
<glyph unicode="d" d="M23 0v27q75 6 102 26q22 19 25 103v637q0 76 -23 102q-24 21 -104 27v26h387q197 0 329 -63q244 -117 244 -414q0 -109 -45 -205q-39 -91 -129 -162q-55 -41 -117 -63q-112 -41 -270 -41h-399zM295 111q0 -37 16 -48q20 -10 72 -10q167 0 276 68q166 102 166 348 q0 222 -137 332q-115 93 -311 96q-48 0 -66 -12q-16 -8 -16 -45v-729z" />
<glyph unicode="e" horiz-adv-x="876" d="M16 0v27q76 6 103 26q22 22 22 103v637q0 75 -22 100q-23 23 -103 29v26h762l4 -205h-37q-18 95 -53 123q-36 26 -164 29h-192q-32 0 -41 -12q-6 -9 -6 -37v-320h221q90 0 117 27q24 27 39 111h34v-332h-34q-15 84 -41 110q-24 27 -115 27h-221v-354q0 -43 26 -52 q22 -5 162 -8q142 0 215 31q68 35 123 156h41l-65 -242h-775z" />
<glyph unicode="f" horiz-adv-x="796" d="M16 0v27q84 6 105 30q20 20 20 115v621q0 75 -22 100q-23 23 -103 29v26h764l4 -205h-39q-15 100 -57 123q-36 26 -160 29h-194q-30 0 -37 -10q-8 -8 -8 -39v-320h207q92 0 116 27q26 29 41 111h33v-332h-33q-15 80 -41 110q-24 27 -116 27h-207v-313q0 -78 22 -103 q27 -20 107 -26v-27h-402z" />
<glyph unicode="g" d="M35 465q0 202 127 344q138 156 368 156q88 0 164 -23q83 -22 92 -22q31 0 43 12q9 6 25 33h31l10 -301h-33q-42 102 -92 155q-81 87 -219 90q-137 0 -244 -104q-102 -108 -102 -346q0 -198 102 -309q105 -111 258 -111q12 0 62 4q32 3 65 16q40 11 66 27q10 12 10 39v227 q0 85 -23 105q-24 18 -102 24v27h367v-27q-54 -3 -72 -18q-29 -20 -29 -92v-283q0 -24 -125 -65q-122 -43 -237 -43q-208 0 -354 122q-158 134 -158 363z" />
<glyph unicode="h" d="M23 0v27q85 6 106 30q21 25 21 115v621q0 75 -25 100q-20 23 -102 29v26h399v-26q-79 -6 -105 -29q-22 -22 -22 -100v-279h434v279q0 78 -22 100q-23 23 -105 29v26h399v-26q-79 -6 -102 -29q-22 -19 -22 -100v-637q0 -82 22 -101q22 -22 102 -28v-27h-399v27 q86 6 107 30q20 20 20 115v279h-434v-295q0 -82 22 -101q25 -22 105 -28v-27h-399z" />
<glyph unicode="i" horiz-adv-x="477" d="M23 0v27q88 6 112 24q27 21 27 105v637q0 78 -27 102q-24 24 -112 27v26h423v-26q-85 -3 -112 -27q-24 -21 -27 -102v-637q0 -84 27 -105q24 -18 112 -24v-27h-423z" />
<glyph unicode="j" horiz-adv-x="557" d="M14 84q0 37 23 53q20 17 45 17q47 0 72 -60q24 -59 49 -59q27 0 39 24q10 27 10 84v650q0 81 -27 102q-24 21 -106 27v26h411v-26q-79 -3 -108 -29q-25 -25 -25 -100v-527q0 -144 -69 -213q-66 -69 -170 -69q-66 0 -107 30q-37 30 -37 70z" />
<glyph unicode="k" d="M27 0v27q88 6 106 30q23 26 23 115v621q0 78 -25 100q-20 23 -104 29v26h407v-26q-80 -3 -108 -27q-25 -25 -25 -102v-293q130 109 217 190q150 144 150 184q0 26 -25 39q-36 9 -74 9v26h377v-22q-62 -5 -108 -29q-36 -16 -111 -88l-270 -266l334 -361q92 -103 124 -125 t101 -32v-25h-438v27q51 0 79 8q21 9 21 28q0 15 -14 37q-8 16 -41 58l-273 299l-49 -43v-258q0 -78 25 -103q27 -20 104 -26v-27h-403z" />
<glyph unicode="l" horiz-adv-x="876" d="M16 0v27q76 6 103 26q22 22 22 103v637q0 75 -22 100q-23 23 -103 29v26h406v-26q-79 -3 -107 -25q-26 -20 -26 -94v-688q0 -26 8 -39q7 -14 35 -17q10 -2 33 -2q34 0 67 -2q188 0 258 31q67 34 131 162h35l-70 -248h-770z" />
<glyph unicode="m" horiz-adv-x="1275" d="M16 0v27q86 6 113 39q27 30 27 145v582q0 77 -25 102q-24 21 -111 27v26h283l332 -723l317 723h285v-26q-79 -6 -102 -29t-23 -100v-637q0 -81 23 -101q25 -22 102 -28v-27h-401v27q87 6 108 30t21 115v643l-367 -815h-18l-363 782v-571q0 -117 37 -154q21 -24 98 -30 v-27h-336z" />
<glyph unicode="n" d="M16 0v27q86 6 113 39q27 30 27 145v633l-21 22q-27 34 -53 45q-18 8 -66 11v26h246l551 -690v479q0 118 -35 156q-23 23 -100 29v26h336v-26q-81 -9 -111 -39q-26 -37 -26 -146v-753h-23l-637 784v-557q0 -117 37 -154q21 -24 98 -30v-27h-336z" />
<glyph unicode="o" d="M43 473q0 232 143 369q133 127 326 127q195 0 328 -127q141 -138 141 -369q0 -236 -147 -371q-131 -122 -322 -122q-203 0 -334 137q-135 138 -135 356zM205 473q0 -225 90 -334q83 -105 217 -108q126 0 217 104q90 110 90 338q0 234 -92 340q-86 102 -215 105 q-128 0 -217 -109q-87 -106 -90 -336z" />
<glyph unicode="p" horiz-adv-x="796" d="M23 0v27q81 6 102 30q20 26 20 115v621q0 75 -22 100q-23 23 -100 29v26h378q182 0 279 -69q96 -72 96 -187q0 -147 -106 -213q-109 -65 -269 -65h-59q-25 2 -53 2v-260q0 -82 24 -103q23 -20 111 -26v-27h-401zM289 473q50 -4 51 -4h22q100 0 154 29q105 50 105 190 q0 130 -113 180q-62 27 -156 27q-45 0 -53 -8q-10 -10 -10 -39v-375z" />
<glyph unicode="q" d="M43 473q0 232 143 369q133 127 326 127t324 -125q145 -136 145 -371q0 -179 -92 -309q-105 -138 -287 -172q85 -121 211 -178q64 -27 186 -43v-27h-59q-114 0 -205 18q-92 22 -164 60q-73 37 -137 104q-51 56 -67 72l-19 6q-112 52 -184 127q-121 130 -121 342zM205 473 q0 -225 90 -334q83 -105 217 -108q126 0 217 104q90 110 90 338q0 234 -92 340q-86 102 -215 105q-128 0 -217 -109q-87 -106 -90 -336z" />
<glyph unicode="r" horiz-adv-x="956" d="M16 0v27q82 6 103 30q20 27 20 115v621q0 75 -22 100q-27 23 -101 29v26h398q122 0 204 -30q158 -58 158 -220q0 -109 -69 -166q-75 -59 -191 -73l297 -365q24 -31 53 -49q35 -15 72 -18v-27h-231l-342 440l-80 -4v-280q0 -79 24 -103q27 -20 105 -26v-27h-398zM285 492 q145 3 221 30q112 49 115 176q0 127 -103 170q-55 24 -145 27q-61 0 -74 -10q-11 -8 -14 -41v-352z" />
<glyph unicode="s" horiz-adv-x="796" d="M59 289h33q39 -104 86 -156q82 -98 211 -98q73 0 119 43q51 42 51 121q0 72 -51 123q-44 38 -137 98l-123 76q-61 38 -88 69q-62 68 -62 152q0 105 72 180q72 72 190 72q46 0 119 -25q19 -6 38 -11.5t28.5 -8.5t11.5 -4q27 0 37 14q10 10 16 35h31l31 -305h-35 q-34 137 -113 192q-76 55 -151 55q-59 0 -105 -34q-43 -34 -43 -97q0 -48 33 -96q38 -41 104 -82l127 -78q119 -75 166 -133q47 -62 47 -145q0 -114 -84 -189t-217 -75q-65 0 -139 24q-77 25 -84 25q-24 0 -33 -15t-12 -32h-31z" />
<glyph unicode="t" horiz-adv-x="876" d="M20 705l9 243h809l8 -243h-35q-24 113 -63 149q-38 35 -164 35h-80v-733q0 -85 26 -105q24 -18 113 -24v-27h-418v27q90 6 115 28q20 27 20 117v717h-79q-121 0 -162 -35q-43 -34 -64 -149h-35z" />
<glyph unicode="u" d="M20 922v26h406v-26q-83 -6 -107 -27t-24 -102v-457q0 -118 31 -176q56 -114 217 -117q172 0 235 119q35 65 35 203v372q0 119 -29 148q-28 28 -106 37v26h332v-26q-87 -10 -109 -41q-24 -30 -24 -144v-372q0 -147 -48 -232q-83 -153 -317 -153q-231 0 -317 151 q-45 77 -45 213v449q0 78 -25 100q-26 23 -105 29z" />
<glyph unicode="v" d="M23 924v24h383v-26q-53 0 -74 -7q-35 -12 -35 -47q0 -21 12 -49q22 -55 45 -104l226 -500l202 541q7 20 21 59q2 7 3.5 15t2.5 15.5t2 10.5q0 40 -37 55q-19 8 -69 11v26h292v-24q-43 -6 -65 -25q-31 -24 -66 -108l-317 -807h-23l-352 786q-47 102 -74 127q-28 24 -77 27 z" />
<glyph unicode="w" horiz-adv-x="1353" d="M6 922v26h352v-26q-43 0 -61 -9q-33 -13 -33 -43q0 -16 4 -26q3 -11 13 -35l206 -539l154 406l-70 172q-18 45 -57 63q-26 11 -68 11v26h385v-26q-55 0 -73 -9q-33 -11 -33 -49q0 -14 2 -20q8 -24 14 -39l207 -539l180 488q20 68 21 73t2 15t2 14q0 41 -39 55 q-19 8 -63 11v26h284v-26q-42 -7 -57 -19q-38 -18 -55 -69l-154 -426l-59 -164l-86 -260h-23l-57 166l-170 440l-221 -606h-23l-102 297l-123 335q-74 209 -107 254q-28 49 -92 52z" />
<glyph unicode="x" d="M14 0v27q61 6 88 30q36 29 119 133l225 277l-159 229q-103 147 -146 187q-42 36 -110 39v26h434v-26q-64 -3 -82 -9q-29 -10 -29 -39q0 -20 15 -47q5 -12 18 -32l150 -215l163 196q35 40 48 70q8 11 8 26q0 31 -31 43q-21 7 -68 7v26h340v-26q-54 0 -90 -19 q-47 -26 -123 -117l-211 -260l277 -395q44 -62 74 -80q34 -19 86 -24v-27h-426v29q57 0 84 10q24 6 24 35q0 20 -30 73q-10 17 -181 267l-168 -213q-7 -9 -53 -70q-22 -36 -22 -51q0 -31 36 -43q25 -7 74 -10v-27h-334z" />
<glyph unicode="y" d="M31 922v26h401v-26q-8 1 -16 1q-32 0 -60 -10q-24 -6 -24 -39q0 -2 4 -22q1 -2 4 -9t6.5 -14t7.5 -14l213 -317l205 323q12 19 16 33q5 10 5 20q0 30 -33 41q-21 7 -68 7v26h316v-26q-42 -3 -78 -25q-59 -46 -121 -139l-211 -324v-278q0 -86 27 -105q28 -21 120 -24v-27 h-438v27q97 3 119 28q25 22 25 117v250l-189 274q-98 146 -135 183q-40 40 -96 43z" />
<glyph unicode="z" horiz-adv-x="876" d="M10 0v16l629 879h-332q-121 0 -176 -64q-31 -39 -49 -129h-39l31 246h755v-16l-622 -877h368q129 0 183 60q36 36 63 137h35l-35 -252h-811z" />
<glyph unicode="{" horiz-adv-x="983" d="M127 473v74q118 12 184 53q99 64 99 205l2 274q0 184 145 252q76 37 297 53v-45q-113 -13 -197 -71q-87 -55 -90 -193v-244q0 -160 -75 -217q-71 -57 -271 -98l-35 -6v-6q204 -15 293 -92q85 -76 88 -203l4 -283q0 -122 101 -186q61 -36 182 -59v-46q-198 0 -322 68 q-117 69 -120 234l-2 307q0 116 -105 176q-66 34 -178 53z" />
<glyph unicode="}" horiz-adv-x="983" d="M127 -319q132 25 182 59q103 60 103 186l2 283q0 134 98 207q94 73 285 88v6q-217 40 -283 86q-97 66 -100 235v244q0 143 -119 213q-61 38 -168 51v45q257 0 350 -84q91 -79 94 -221l2 -274q0 -142 105 -207q59 -36 176 -51v-74q-122 -21 -180 -55q-101 -58 -101 -174 l-2 -307q0 -165 -120 -232q-119 -70 -324 -70v46z" />
<glyph unicode="~" horiz-adv-x="1107" d="M29 328q29 136 73 213q73 125 197 125q70 0 274 -82q201 -79 258 -82q74 0 125 69q31 42 70 140h51q-50 -199 -119 -271q-67 -70 -161 -73q-82 0 -285 84q-193 84 -244 84q-77 0 -139 -86q-33 -56 -53 -121h-47z" />
<glyph unicode="&#xa2;" horiz-adv-x="1024" d="M109 440q0 196 143 348q139 154 307 154q37 0 55 -4q26 0 50 -6l90 254h69l-94 -277q57 -23 90 -53q62 -53 62 -117q0 -43 -23 -69q-21 -24 -63 -27q-44 0 -74 35q-23 23 -45 74l-207 -596q44 -16 63 -21q32 -4 58 -4q104 0 188 72q53 44 113 133l27 -17 q-81 -186 -185 -262q-106 -80 -205 -80q-34 0 -51 5q-28 4 -65 16l-103 -283h-67l104 308q-105 48 -170 161q-64 111 -67 256zM262 522q0 -134 53 -221q28 -46 91 -100l233 661q-21 9 -39 15q-24 4 -55 4q-119 0 -201 -101q-82 -102 -82 -258z" />
<glyph unicode="&#xa9;" horiz-adv-x="1556" d="M66 680q0 295 206 498q203 203 498 206q295 0 498 -206q204 -204 207 -498q0 -294 -207 -498q-204 -204 -498 -207q-294 0 -498 207q-203 203 -206 498zM141 680q0 -259 185 -444q185 -182 444 -185q259 0 444 185q182 185 185 444q0 259 -185 444q-185 182 -444 185 q-259 0 -444 -185q-182 -185 -185 -444zM348 698q0 197 117 320q113 122 291 125q40 0 90 -13q31 -6 84 -32l33 -21q6 -4 18 -8q4 -2 16 -2q24 0 29 12q9 15 18 56h43l9 -344h-49q-30 154 -107 231q-71 71 -174 74q-106 0 -176 -99q-72 -97 -72 -305q0 -131 60 -254 q61 -119 210 -119q107 0 189 70q44 44 92 121l41 -25q-45 -86 -104 -139q-103 -92 -248 -92q-170 0 -289 125q-121 121 -121 319z" />
<glyph unicode="&#xad;" horiz-adv-x="681" d="M80 397v129h504v-129h-504z" />
<glyph unicode="&#xae;" horiz-adv-x="1556" d="M66 680q0 295 206 498q203 203 498 206q295 0 498 -206q204 -204 207 -498q0 -294 -207 -498q-204 -204 -498 -207q-294 0 -498 207q-203 203 -206 498zM141 680q0 -259 185 -444q185 -182 444 -185q259 0 444 185q182 185 185 444q0 259 -185 444q-185 182 -444 185 q-259 0 -444 -185q-182 -185 -185 -444zM373 274v48q78 0 108 10q28 11 31 59v596q0 41 -31 57q-29 13 -108 13v47h401q152 0 250 -55q91 -55 94 -156q0 -79 -76 -137q-78 -54 -202 -68v-6q150 -50 190 -205q44 -153 74 -153q37 0 51 38q8 25 21 109h49q-6 -88 -31 -133 q-41 -78 -143 -78q-95 0 -129 64q-23 41 -29 157q-6 121 -55 158q-46 34 -189 31v-279q0 -47 39 -61q21 -8 100 -8v-48h-415zM649 719q162 0 215 20q83 36 86 156q0 78 -47 119q-43 43 -143 43q-53 0 -80 -15q-31 -12 -31 -55v-268z" />
<glyph unicode="&#x2000;" horiz-adv-x="744" />
<glyph unicode="&#x2001;" horiz-adv-x="1489" />
<glyph unicode="&#x2002;" horiz-adv-x="744" />
<glyph unicode="&#x2003;" horiz-adv-x="1489" />
<glyph unicode="&#x2004;" horiz-adv-x="496" />
<glyph unicode="&#x2005;" horiz-adv-x="372" />
<glyph unicode="&#x2006;" horiz-adv-x="248" />
<glyph unicode="&#x2007;" horiz-adv-x="248" />
<glyph unicode="&#x2008;" horiz-adv-x="186" />
<glyph unicode="&#x2009;" horiz-adv-x="297" />
<glyph unicode="&#x200a;" horiz-adv-x="82" />
<glyph unicode="&#x2010;" horiz-adv-x="681" d="M80 397v129h504v-129h-504z" />
<glyph unicode="&#x2011;" horiz-adv-x="681" d="M80 397v129h504v-129h-504z" />
<glyph unicode="&#x2012;" horiz-adv-x="681" d="M80 397v129h504v-129h-504z" />
<glyph unicode="&#x2013;" horiz-adv-x="1201" d="M80 397v129h1024v-129h-1024z" />
<glyph unicode="&#x2014;" horiz-adv-x="2225" d="M80 397v129h2048v-129h-2048z" />
<glyph unicode="&#x201c;" horiz-adv-x="909" d="M55 1069q0 97 72 184q71 86 160 127l18 -39q-70 -40 -121 -100q-46 -58 -49 -121q0 -11 8 -16q6 -6 21 -6q64 6 69 6q31 0 70 -25q39 -20 39 -82q0 -51 -31 -82q-27 -31 -92 -34q-70 0 -117 53q-47 56 -47 135zM524 1063q0 103 74 192q72 87 158 125l18 -39 q-74 -45 -119 -100q-49 -55 -49 -119q0 -9 6 -18q6 -6 21 -6q65 6 69 6q37 0 74 -27q34 -22 37 -78q0 -40 -29 -79q-26 -36 -96 -39q-71 0 -117 55q-44 52 -47 127z" />
<glyph unicode="&#x201d;" horiz-adv-x="909" d="M72 1270q0 39 28 78q29 33 95 36q70 0 116 -55q44 -52 47 -127q0 -109 -73 -194q-74 -86 -158 -123l-18 39q70 46 118 100q49 52 49 117q0 9 -6 18q-3 8 -18 8q-62 -6 -72 -6q-32 0 -61 19q-47 26 -47 90zM541 1268q0 48 30 82q31 31 93 34q68 0 114 -55q49 -52 49 -135 q0 -96 -71 -182q-67 -84 -158 -127l-20 39q104 61 147 143q23 48 23 78q0 7 -9 16q-6 6 -20 6q-58 -6 -68 -6q-39 0 -76 27q-34 27 -34 80z" />
<glyph unicode="&#x2022;" horiz-adv-x="716" d="M61 680q0 120 84 207q87 84 207 84q121 0 205 -84t84 -207q0 -122 -84 -209q-83 -83 -205 -86q-121 0 -207 86q-84 87 -84 209z" />
<glyph unicode="&#x202f;" horiz-adv-x="297" />
<glyph unicode="&#x205f;" horiz-adv-x="372" />
<glyph unicode="&#x2122;" horiz-adv-x="2007" d="M63 1098l17 258h569l19 -258h-35q-24 136 -86 186q-39 28 -121 37v-571q0 -46 23 -60q28 -14 90 -14v-37h-344v37q55 0 86 14q21 10 24 60v571q-92 -9 -133 -47q-54 -47 -74 -176h-35zM756 639v37q62 9 82 26q19 13 22 72v471q0 50 -18 62q-16 11 -86 14v35h239l191 -527 l176 527h227v-35q-60 -3 -80 -16q-14 -8 -14 -60v-495q0 -45 18 -60q19 -11 76 -14v-37h-311v37q63 3 78 18q13 13 16 56v495l-209 -606h-33l-233 645v-512q0 -58 27 -76q22 -14 88 -20v-37h-256z" />
<glyph unicode="&#xe000;" horiz-adv-x="952" d="M0 0v952h952v-952h-952z" />
</font>
</defs>
</svg>
